<svg width="41" height="43" viewBox="0 0 41 43" fill="none" xmlns="http://www.w3.org/2000/svg">
<path d="M15.7831 4.52473H18.9781V6.69346C17.4232 6.69451 16.136 6.72158 14.7181 7.41638C15.5836 9.16326 16.8332 9.21722 18.6231 9.22366V10.6695H16.8481V12.4768C17.7842 12.8162 18.1325 13.0478 18.6231 13.9226C17.4761 13.3007 16.327 12.8259 15.0731 12.4768C14.8282 13.7946 14.803 14.9738 13.6532 15.7299L14.0082 13.9226C12.8775 13.6544 12.2396 13.8278 11.1682 14.284L10.8132 13.9226C11.3418 12.4455 11.5189 11.1529 11.5232 9.58511C9.91789 10.0144 8.70416 10.9605 7.97322 12.4768C5.77757 11.6844 6.29267 10.405 6.90823 8.50074C4.83399 7.83725 1.50804 7.94298 0.426722 10.385C0.0539759 11.2274 0.159045 12.2999 0.16366 13.1994C0.166855 13.8345 0.0845137 14.6251 0.377385 15.2117C1.26097 16.9792 3.00008 15.4851 3.35828 14.284L5.48825 15.007C4.96605 16.5045 4.46125 17.7317 4.42326 19.3444C6.28273 19.1335 7.45457 18.317 7.97322 16.4528L9.7482 16.8142L8.68321 18.983C10.2143 19.2273 11.4394 18.8071 12.9432 18.6215L9.7482 21.1517V21.8746C10.8302 22.4898 11.7511 23.113 12.5882 24.0434C11.1763 23.5988 10.1504 23.4209 8.68321 23.6819L9.7482 25.4892C7.80957 25.1722 6.37361 23.5406 4.42326 22.959C4.45947 24.6806 4.96108 26.0447 5.48825 27.6579C3.94153 27.8354 2.29968 26.0169 0.985844 26.7597C-0.293561 27.4833 -0.194872 31.403 0.528254 32.4978C1.99829 34.7251 4.84322 34.9745 6.90823 33.8027C6.49537 32.9055 6.02429 32.1006 5.48825 31.2725L7.97322 30.1881C8.49684 32.042 9.76027 32.6482 11.5232 33.0798C11.5218 31.3874 11.3077 29.9951 10.8132 28.3808C11.4511 28.3808 11.3535 28.3758 11.8782 28.0194L12.5882 29.4652C13.5548 28.7564 13.6152 28.1282 13.6532 26.935H14.7181L15.0731 30.1881C16.3103 29.8252 17.4363 29.2447 18.6231 28.7423V30.1881H16.8481V32.3569H18.6231V33.4412C16.9972 33.456 15.7892 33.7123 14.3631 34.5256C15.9109 36.1789 18.5695 35.5926 18.9781 38.1402L15.7831 38.5016C15.9251 44.4718 25.2246 44.5271 25.368 38.5016L22.1731 38.1402C22.5895 35.5431 25.281 36.2642 26.788 34.5256C25.362 33.7123 24.1539 33.456 22.5281 33.4412V32.3569H24.303V30.1881H22.5281V28.7423C23.6747 29.364 24.8245 29.8389 26.078 30.1881C26.2495 28.8446 26.3368 27.693 27.498 26.935C27.3549 28.229 27.4266 28.8124 28.563 29.4652L29.273 28.0194C29.798 28.3758 29.7 28.3808 30.338 28.3808C29.9198 29.9908 29.6326 31.4055 29.628 33.0798C31.5517 32.6677 32.7253 32.0836 33.5329 30.1881C34.272 30.585 34.8358 30.7972 35.6629 30.911C35.1247 31.982 34.6299 33.0266 34.2429 34.1641C37.4421 35.1878 40.9694 34.013 40.9875 30.1881C40.9928 29.1048 41.1518 27.5433 40.165 26.8128C39.019 25.9645 36.7705 27.7342 35.3079 27.6579C36.0399 26.1756 36.358 24.9803 36.3729 23.3204C34.4279 23.5858 33.7047 24.9571 32.1129 25.8506C32.0569 24.112 31.0121 22.4573 29.628 24.4048C29.1029 24.0484 29.2009 24.0434 28.563 24.0434V23.3204L31.7579 21.8746C31.0274 20.5889 29.7632 19.8114 28.563 18.983C29.9432 19.086 31.0952 19.3012 32.4679 18.983L31.7579 16.8142C32.3959 16.8142 32.2982 16.809 32.8229 16.4528C33.1815 17.2629 35.6565 20.7209 36.4765 18.501C36.8873 17.3889 35.8226 15.9093 35.3079 15.007C36.0204 14.8955 36.6878 14.735 37.3793 15.0424C38.0953 15.3606 38.6768 16.2506 39.5434 16.1201C40.8196 15.9278 40.9573 14.2117 40.9822 13.1997C41.0166 11.7943 40.886 10.449 39.8007 9.45401C38.3552 8.12866 34.0292 6.80345 34.8521 10.2932C34.9827 10.8474 35.3651 11.2939 35.6629 11.7538L33.1779 12.4768C32.4427 10.9158 31.2773 10.0024 29.628 9.58511C29.6326 11.2593 29.9198 12.674 30.338 14.284C29.1647 13.914 28.35 13.6372 27.143 13.9226L27.498 15.7299C26.3482 14.9738 26.323 13.7946 26.078 12.4768C24.7897 12.7882 23.6786 13.2566 22.5281 13.9226C23.0151 13.0019 23.3154 12.7704 24.303 12.4768V10.6695H22.5281V9.22366C23.9629 9.21867 25.1043 9.07401 26.433 8.50074C25.6985 6.13313 22.9012 7.07968 22.1731 4.52473H25.368C25.2977 -1.52424 15.8531 -1.49222 15.7831 4.52473Z" fill="#348AA7"/>
</svg>
