<svg width="201" height="80" viewBox="0 0 201 80" fill="none" xmlns="http://www.w3.org/2000/svg">
<path d="M25.9888 64.64C22.6181 64.64 19.5034 64.0853 16.6447 62.976C13.8287 61.824 11.3754 60.224 9.28475 58.176C7.23675 56.0853 5.63675 53.632 4.48475 50.816C3.37542 47.9573 2.82075 44.8427 2.82075 41.472C2.82075 38.144 3.39675 35.072 4.54875 32.256C5.74342 29.44 7.40742 26.9867 9.54075 24.896C11.6741 22.8053 14.1701 21.184 17.0287 20.032C19.9301 18.88 23.0661 18.304 26.4368 18.304C28.5701 18.304 30.6608 18.5813 32.7088 19.136C34.7568 19.6907 36.6554 20.5227 38.4048 21.632C40.1968 22.6987 41.7327 24 43.0127 25.536L36.2928 33.152C34.9701 31.7013 33.4768 30.5707 31.8127 29.76C30.1914 28.9493 28.3781 28.544 26.3727 28.544C24.6661 28.544 23.0447 28.8427 21.5087 29.44C20.0154 30.0373 18.7141 30.912 17.6047 32.064C16.4954 33.216 15.6207 34.5813 14.9807 36.16C14.3407 37.7387 14.0207 39.5307 14.0207 41.536C14.0207 43.4987 14.3194 45.2907 14.9167 46.912C15.5567 48.4907 16.4527 49.856 17.6047 51.008C18.7994 52.1173 20.2074 52.9707 21.8287 53.568C23.4927 54.1653 25.3274 54.464 27.3328 54.464C28.6554 54.464 29.9141 54.2933 31.1087 53.952C32.3461 53.568 33.4981 53.0347 34.5648 52.352C35.6314 51.6693 36.5487 50.9013 37.3167 50.048L42.6287 58.496C41.6048 59.648 40.1968 60.6933 38.4048 61.632C36.6554 62.5707 34.6928 63.3173 32.5168 63.872C30.3834 64.384 28.2074 64.64 25.9888 64.64ZM42.5877 64V16.64H52.7637V36.928L50.6517 37.696C51.1211 36.16 51.9531 34.7733 53.1477 33.536C54.3851 32.256 55.8571 31.232 57.5637 30.464C59.2704 29.696 61.0624 29.312 62.9397 29.312C65.4997 29.312 67.6544 29.8453 69.4037 30.912C71.1531 31.936 72.4544 33.4933 73.3077 35.584C74.2037 37.632 74.6517 40.1707 74.6517 43.2V64H64.3477V43.968C64.3477 42.6027 64.1557 41.472 63.7717 40.576C63.3877 39.68 62.8117 39.0187 62.0437 38.592C61.2757 38.1653 60.3157 37.9733 59.1637 38.016C58.2677 38.016 57.4357 38.1653 56.6677 38.464C55.8997 38.72 55.2171 39.1253 54.6197 39.68C54.0651 40.192 53.6384 40.7893 53.3397 41.472C53.0411 42.1547 52.8917 42.9227 52.8917 43.776V64H47.7077C46.5984 64 45.5957 64 44.6997 64C43.8464 64 43.1424 64 42.5877 64ZM77.4512 64V30.016H87.7552V64H77.4512ZM82.6352 23.296C80.6726 23.296 79.1366 22.848 78.0272 21.952C76.9606 21.0133 76.4272 19.6907 76.4272 17.984C76.4272 16.4053 76.9819 15.1253 78.0912 14.144C79.2006 13.1627 80.7152 12.672 82.6352 12.672C84.5126 12.672 85.9846 13.1413 87.0512 14.08C88.1606 14.976 88.7152 16.2773 88.7152 17.984C88.7152 19.5627 88.1606 20.8427 87.0512 21.824C85.9846 22.8053 84.5126 23.296 82.6352 23.296ZM91.0378 64V16.64H101.342V64H91.0378ZM104.075 64V16.64H114.379V64H104.075ZM156.772 64.64C154.297 64.64 152.164 64.1067 150.372 63.04C148.58 61.9307 147.193 60.3733 146.212 58.368C145.273 56.32 144.804 53.8667 144.804 51.008V30.016H155.108V49.472C155.108 51.5627 155.598 53.2053 156.58 54.4C157.604 55.552 159.012 56.128 160.804 56.128C161.7 56.128 162.51 56 163.236 55.744C163.961 55.4453 164.58 55.04 165.092 54.528C165.646 53.9733 166.073 53.3333 166.372 52.608C166.67 51.8827 166.82 51.0933 166.82 50.24V30.016H177.124V64H167.46L167.076 57.024L168.932 56.256C168.462 57.8347 167.609 59.264 166.372 60.544C165.177 61.824 163.748 62.8267 162.084 63.552C160.42 64.2773 158.649 64.64 156.772 64.64ZM182.729 64V21.44H193.033V64H182.729ZM176.713 39.04V30.016H199.561V39.04H176.713Z" fill="#348AA7"/>
<path d="M125.783 28.5247H128.978V30.6935C127.423 30.6945 126.136 30.7216 124.718 31.4164C125.584 33.1633 126.833 33.2172 128.623 33.2237V34.6695H126.848V36.4768C127.784 36.8162 128.132 37.0478 128.623 37.9226C127.476 37.3007 126.327 36.8259 125.073 36.4768C124.828 37.7946 124.803 38.9738 123.653 39.7299L124.008 37.9226C122.877 37.6544 122.24 37.8278 121.168 38.284L120.813 37.9226C121.342 36.4455 121.519 35.1529 121.523 33.5851C119.918 34.0144 118.704 34.9605 117.973 36.4768C115.778 35.6844 116.293 34.405 116.908 32.5007C114.834 31.8373 111.508 31.943 110.427 34.385C110.054 35.2274 110.159 36.2999 110.164 37.1994C110.167 37.8345 110.085 38.6251 110.377 39.2117C111.261 40.9792 113 39.4851 113.358 38.284L115.488 39.007C114.966 40.5045 114.461 41.7317 114.423 43.3444C116.283 43.1335 117.455 42.317 117.973 40.4528L119.748 40.8142L118.683 42.983C120.214 43.2273 121.439 42.8071 122.943 42.6215L119.748 45.1517V45.8746C120.83 46.4898 121.751 47.113 122.588 48.0434C121.176 47.5988 120.15 47.4209 118.683 47.6819L119.748 49.4892C117.81 49.1722 116.374 47.5406 114.423 46.959C114.459 48.6806 114.961 50.0447 115.488 51.6579C113.942 51.8354 112.3 50.0169 110.986 50.7597C109.706 51.4833 109.805 55.403 110.528 56.4978C111.998 58.7251 114.843 58.9745 116.908 57.8027C116.495 56.9055 116.024 56.1006 115.488 55.2725L117.973 54.1881C118.497 56.042 119.76 56.6482 121.523 57.0798C121.522 55.3874 121.308 53.9951 120.813 52.3808C121.451 52.3808 121.353 52.3758 121.878 52.0194L122.588 53.4652C123.555 52.7564 123.615 52.1282 123.653 50.935H124.718L125.073 54.1881C126.31 53.8252 127.436 53.2447 128.623 52.7423V54.1881H126.848V56.3569H128.623V57.4412C126.997 57.456 125.789 57.7123 124.363 58.5256C125.911 60.1789 128.569 59.5926 128.978 62.1402L125.783 62.5016C125.925 68.4718 135.225 68.5271 135.368 62.5016L132.173 62.1402C132.589 59.5431 135.281 60.2642 136.788 58.5256C135.362 57.7123 134.154 57.456 132.528 57.4412V56.3569H134.303V54.1881H132.528V52.7423C133.675 53.364 134.825 53.8389 136.078 54.1881C136.249 52.8446 136.337 51.693 137.498 50.935C137.355 52.229 137.427 52.8124 138.563 53.4652L139.273 52.0194C139.798 52.3758 139.7 52.3808 140.338 52.3808C139.92 53.9908 139.633 55.4055 139.628 57.0798C141.552 56.6677 142.725 56.0836 143.533 54.1881C144.272 54.585 144.836 54.7972 145.663 54.911C145.125 55.982 144.63 57.0266 144.243 58.1641C147.442 59.1878 150.969 58.013 150.987 54.1881C150.993 53.1048 151.152 51.5433 150.165 50.8128C149.019 49.9645 146.77 51.7342 145.308 51.6579C146.04 50.1756 146.358 48.9803 146.373 47.3204C144.428 47.5858 143.705 48.9571 142.113 49.8506C142.057 48.112 141.012 46.4573 139.628 48.4048C139.103 48.0484 139.201 48.0434 138.563 48.0434V47.3204L141.758 45.8746C141.027 44.5889 139.763 43.8114 138.563 42.983C139.943 43.086 141.095 43.3012 142.468 42.983L141.758 40.8142C142.396 40.8142 142.298 40.809 142.823 40.4528C143.181 41.2629 145.657 44.7209 146.477 42.501C146.887 41.3889 145.823 39.9093 145.308 39.007C146.02 38.8955 146.688 38.735 147.379 39.0424C148.095 39.3606 148.677 40.2506 149.543 40.1201C150.82 39.9278 150.957 38.2117 150.982 37.1997C151.017 35.7943 150.886 34.449 149.801 33.454C148.355 32.1287 144.029 30.8035 144.852 34.2932C144.983 34.8474 145.365 35.2939 145.663 35.7538L143.178 36.4768C142.443 34.9158 141.277 34.0024 139.628 33.5851C139.633 35.2593 139.92 36.674 140.338 38.284C139.165 37.914 138.35 37.6372 137.143 37.9226L137.498 39.7299C136.348 38.9738 136.323 37.7946 136.078 36.4768C134.79 36.7882 133.679 37.2566 132.528 37.9226C133.015 37.0019 133.315 36.7704 134.303 36.4768V34.6695H132.528V33.2237C133.963 33.2187 135.104 33.074 136.433 32.5007C135.699 30.1331 132.901 31.0797 132.173 28.5247H135.368C135.298 22.4758 125.853 22.5078 125.783 28.5247Z" fill="white"/>
</svg>
